# xmcd
#
# Track frame offsets:
#	150
#	3964
#	21009
#	35514
#	51090
#	55819
#	72428
#	88160
#	108075
#	126115
#	142174
#	167107
#	187718
#	218358
#	239462
#	260995
#
# Disc length: 3572 seconds
#
# Revision: 1
# Processed by: cddbd v1.5.2PL0 Copyright (c) Steve Scherf et al.
# Submitted via: audiograbber 1.83.01
#
DISCID=dc0df210
DTITLE=Giant Sand - Chore of Enchantment
DYEAR=2000
DGENRE=Rock
TTITLE0=Overture
TTITLE1=(well) Dusted (for the millenium)
TTITLE2=Punishing Sun
TTITLE3=X-tra Wide 
TTITLE4=1972
TTITLE5=Temptation Of Egg 
TTITLE6=Raw
TTITLE7=Wolfy
TTITLE8=Shiver
TTITLE9=Dirty From The Rain
TTITLE10=Astonished (in Memphis) 
TTITLE11=No Reply 
TTITLE12=Satellite
TTITLE13=Bottom Line Man 
TTITLE14=Way To End The Day 
TTITLE15=Shrine 
EXTD=
EXTT0=
EXTT1=
EXTT2=
EXTT3=
EXTT4=
EXTT5=
EXTT6=
EXTT7=
EXTT8=
EXTT9=
EXTT10=
EXTT11=
EXTT12=
EXTT13=
EXTT14=
EXTT15=
PLAYORDER=
